<svg width="898" height="686" viewBox="0 0 898 686" fill="none" xmlns="http://www.w3.org/2000/svg">
<path d="M778.665 579.002C774.776 574.143 771.86 568.655 769.401 562.995C768.2 560.194 767.056 557.279 765.969 554.42C765.455 553.048 764.883 551.734 764.482 550.362C764.025 548.932 763.853 548.189 764.54 546.817C764.54 545.845 764.94 545.445 765.683 545.56C766.312 545.388 766.713 545.674 766.941 546.417C767.513 546.36 768.085 546.246 768.6 546.188C765.169 535.841 762.938 525.151 761.966 514.347C761.509 509.087 761.337 503.771 761.451 498.454C761.509 495.996 761.623 493.538 761.852 491.023C761.909 490.051 761.795 487.307 762.366 486.507C762.995 486.335 763.567 486.164 764.196 486.049C765.226 485.192 766.026 485.192 766.541 486.106C767.17 486.621 767.571 487.536 767.971 488.222C778.436 505.6 785.413 525.208 788.787 545.16C790.732 556.65 791.475 568.255 790.96 579.917C790.903 581.003 792.619 581.003 792.676 579.917C793.591 556.764 789.759 533.498 781.353 511.889C779.237 506.515 776.892 501.255 774.261 496.11C773.061 493.709 771.745 491.366 770.43 489.079C769.343 487.193 768.257 484.906 766.427 483.648C762.881 481.247 760.822 484.677 760.422 487.821C759.679 493.767 759.564 499.826 759.736 505.829C760.136 519.72 762.538 533.44 766.884 546.589C767.17 547.503 768.6 547.389 768.543 546.36C768.543 544.073 765.969 543.101 764.025 544.073C760.594 545.731 762.538 550.476 763.453 552.991C766.999 562.595 770.83 572.085 777.292 580.145C778.15 581.117 779.351 579.86 778.665 579.002Z" fill="#E8E8E8"/>
<path d="M788.73 536.241C789.187 528.638 790.16 521.092 791.818 513.604C792.619 510.116 793.477 506.629 794.563 503.199C795.078 501.484 795.65 499.769 796.222 498.111C796.507 497.254 796.793 496.396 797.137 495.596C797.251 495.253 797.365 494.91 797.537 494.567C797.766 493.367 798.566 492.681 799.882 492.452C799.767 493.424 801.311 493.595 801.54 492.68C802.684 488.907 811.948 464.612 817.61 468.785C819.268 469.985 819.726 472.786 820.012 474.673C820.469 477.303 820.869 479.99 821.155 482.619C821.67 487.135 822.013 491.651 822.128 496.225C822.642 514.804 819.84 533.498 813.892 551.162C810.461 561.281 806.001 570.942 800.625 580.145C800.053 581.117 801.54 581.975 802.112 581.003C812.92 562.595 819.84 542.13 822.585 521.035C823.958 510.402 824.301 499.655 823.5 488.965C823.1 483.877 822.528 478.789 821.613 473.758C821.098 471.014 819.84 466.956 816.58 466.441C812.291 465.755 808.974 472.844 807.259 475.702C804.113 480.904 801.712 486.449 799.939 492.223C800.511 492.28 801.082 492.395 801.597 492.452C801.94 489.708 798.509 489.536 797.137 491.309C796.107 492.623 795.65 494.567 795.135 496.11C794.163 498.797 793.305 501.541 792.504 504.285C789.473 514.69 787.701 525.38 787.072 536.184C786.957 537.328 788.673 537.328 788.73 536.241Z" fill="#E8E8E8"/>
<path d="M761.852 485.878C774.319 514.976 782.153 545.903 785.013 577.402C785.127 578.488 786.843 578.488 786.728 577.402C783.812 545.56 775.92 514.404 763.339 484.963C762.881 483.991 761.395 484.906 761.852 485.878Z" fill="#E8E8E8"/>
<path d="M761.509 523.55C767.456 526.523 772.946 530.239 777.922 534.584C778.722 535.327 779.98 534.126 779.122 533.383C773.976 528.924 768.428 525.151 762.309 522.064C761.394 521.607 760.479 523.093 761.509 523.55Z" fill="#E8E8E8"/>
<path d="M777.407 506.801C775.806 509.945 774.605 513.261 773.861 516.748C773.633 517.834 775.291 518.291 775.52 517.205C776.263 513.889 777.35 510.688 778.894 507.658C779.408 506.686 777.922 505.829 777.407 506.801Z" fill="#E8E8E8"/>
<path d="M814.808 470.1C811.09 503.313 807.03 537.614 790.846 567.454C790.331 568.426 791.818 569.284 792.333 568.312C808.689 538.185 812.749 503.656 816.523 470.1C816.638 469.013 814.922 469.013 814.808 470.1Z" fill="#E8E8E8"/>
<path d="M793.42 502.628C797.994 513.375 801.368 524.522 803.599 535.956C803.827 537.042 805.486 536.584 805.257 535.498C802.97 523.893 799.481 512.632 794.906 501.77C794.449 500.741 793.019 501.599 793.42 502.628Z" fill="#E8E8E8"/>
<path d="M810.633 511.26C814.922 505.829 819.211 500.398 823.5 495.024C824.186 494.167 822.985 492.966 822.299 493.824C818.01 499.255 813.721 504.685 809.432 510.059C808.746 510.859 809.947 512.117 810.633 511.26Z" fill="#E8E8E8"/>
<path d="M99.9637 571.399C96.2465 567.397 92.4721 563.281 89.4412 558.708C88.0115 556.478 86.6962 554.192 85.6668 551.734C85.095 550.362 82.4072 543.044 86.1243 544.531C87.0393 544.874 87.4396 543.673 86.9822 543.101C83.2078 538.299 80.6915 532.697 78.5184 527.038C76.4597 521.664 74.4581 516.233 72.5709 510.802C70.5122 504.857 68.7393 498.74 68.0531 492.509C67.5384 487.593 67.0237 480.847 70.5693 476.788C75.7734 470.9 81.0346 480.618 83.4937 484.277C86.8106 489.193 90.0703 494.224 93.2156 499.255C99.449 509.487 105.111 520.12 109.285 531.439C114.032 544.359 116.662 558.022 116.033 571.799C115.976 572.885 117.692 572.885 117.749 571.799C119.007 543.902 107.055 517.891 92.4721 494.796C88.8693 489.136 85.2665 483.419 81.3206 477.989C79.0903 474.959 75.5446 471.815 71.5415 473.815C67.8815 475.588 66.509 480.332 66.1659 484.048C65.5368 490.794 66.8521 497.654 68.6821 504.114C70.7409 511.431 73.5431 518.52 76.1737 525.608C78.6328 532.24 81.3778 538.7 85.7812 544.302C86.0671 543.845 86.3531 543.33 86.639 542.873C85.1521 542.301 83.8368 542.473 82.5787 543.387C82.35 543.559 82.1212 543.845 82.1784 544.13C83.4365 555.678 91.2712 564.539 98.82 572.657C99.5062 573.457 100.707 572.256 99.9637 571.399Z" fill="#E8E8E8"/>
<path d="M104.653 517.034C102.88 501.027 104.996 484.963 110.829 469.928C110.372 470.043 109.857 470.157 109.4 470.328C111.173 471.929 112.373 473.758 113.06 476.045C113.288 476.845 114.489 476.903 114.718 476.045C118.607 462.554 124.268 449.691 131.703 437.743C131.188 437.686 130.673 437.629 130.159 437.515C134.619 448.891 137.422 460.896 138.337 473.13C139.137 484.106 139.423 496.739 132.732 506.058C132.389 506.515 132.732 507.201 133.247 507.315C138.394 508.516 136.85 516.633 136.392 520.292C135.706 526.352 134.677 532.411 133.361 538.357C130.845 549.847 127.185 561.109 122.553 571.914C122.095 572.943 123.582 573.8 124.04 572.771C129.473 560.194 133.533 547.046 136.106 533.612C137.25 527.438 138.565 520.921 138.68 514.633C138.737 511.031 137.822 506.515 133.762 505.6C133.933 506 134.105 506.458 134.276 506.858C140.967 497.54 140.853 485.077 140.167 474.101C139.366 461.353 136.507 448.834 131.874 437C131.588 436.314 130.731 436.143 130.33 436.771C122.839 448.834 117.12 461.811 113.174 475.473C113.746 475.473 114.261 475.473 114.833 475.473C114.032 472.901 112.717 470.843 110.715 469.014C110.2 468.556 109.514 468.785 109.285 469.414C103.395 484.563 101.279 500.855 103.052 516.976C103.052 518.12 104.767 518.12 104.653 517.034Z" fill="#E8E8E8"/>
<path d="M71.1984 476.502C79.1474 492.223 87.2681 507.887 94.874 523.779C102.308 539.443 108.885 555.621 112.431 572.657C112.659 573.743 114.318 573.285 114.089 572.199C110.543 555.335 104.138 539.386 96.7612 523.836C89.0981 507.601 80.7487 491.651 72.6281 475.588C72.1706 474.673 70.6837 475.53 71.1984 476.502Z" fill="#E8E8E8"/>
<path d="M130.502 439.916C129.301 456.894 124.04 473.13 120.151 489.594C116.262 506.058 113.574 522.807 112.087 539.672C111.973 540.758 113.689 540.758 113.803 539.672C115.347 522.236 118.207 504.914 122.324 487.936C126.213 472.043 131.017 456.323 132.217 439.916C132.275 438.772 130.559 438.772 130.502 439.916Z" fill="#E8E8E8"/>
<path d="M70.2834 509.259C78.9187 512.174 86.8106 516.633 93.8447 522.464C94.7025 523.15 95.9034 521.95 95.0456 521.264C87.7828 515.261 79.6622 510.688 70.7409 507.601C69.6543 507.201 69.1968 508.859 70.2834 509.259Z" fill="#E8E8E8"/>
<path d="M108.885 471.3C110.829 481.647 113.689 491.823 117.406 501.656C117.806 502.685 119.465 502.227 119.064 501.198C115.347 491.308 112.545 481.19 110.543 470.843C110.315 469.757 108.713 470.214 108.885 471.3Z" fill="#E8E8E8"/>
<path d="M115.061 543.444C121.237 535.327 127.585 527.152 136.621 522.064C137.593 521.55 136.735 520.063 135.763 520.578C126.499 525.837 119.922 534.241 113.574 542.587C112.945 543.444 114.432 544.302 115.061 543.444Z" fill="#E8E8E8"/>
<path d="M709.811 582.089C757.906 582.089 806.058 582.089 854.152 582.089C856.383 582.089 856.383 578.659 854.152 578.659C806.058 578.659 757.906 578.659 709.811 578.659C707.581 578.659 707.581 582.089 709.811 582.089Z" fill="black"/>
<path d="M187.403 570.656C149.66 570.656 111.916 570.656 74.1721 570.656C71.9418 570.656 71.9418 574.086 74.1721 574.086C111.916 574.086 149.66 574.086 187.403 574.086C189.577 574.086 189.577 570.656 187.403 570.656Z" fill="black"/>
<path d="M571.818 609.987C623.973 609.987 676.128 609.987 728.283 609.987C743.152 609.987 757.963 609.987 772.832 609.987C775.062 609.987 775.062 606.557 772.832 606.557C720.677 606.557 668.522 606.557 616.367 606.557C601.498 606.557 586.686 606.557 571.818 606.557C569.645 606.557 569.587 609.987 571.818 609.987Z" fill="black"/>
<path d="M695.286 558.004C528.87 554.688 362.454 551.372 196.039 548.057C166.244 547.485 145.428 518.387 154.463 490.033L257.229 166.812C263.062 148.462 280.104 135.885 299.377 135.771C453.382 134.685 607.388 133.541 761.394 132.455C789.531 132.227 810.862 157.894 805.429 185.506L739.835 521.989C735.774 543.255 716.96 558.461 695.286 558.004Z" fill="#EC615B" stroke="black" stroke-width="6" stroke-miterlimit="10"/>
<path d="M692.083 555.203C525.667 552.059 359.252 548.971 192.836 545.827C163.042 545.256 142.225 517.816 151.261 491.062L254.027 185.963C259.86 168.642 276.902 156.808 296.174 156.637C450.18 155.608 604.186 154.522 758.192 153.493C786.328 153.321 807.659 177.503 802.226 203.571L736.632 521.246C732.572 541.254 713.757 555.603 692.083 555.203Z" fill="white" stroke="black" stroke-width="6" stroke-miterlimit="10"/>
<path d="M734.745 529.763C729.255 541.826 718.675 550.915 705.922 554.46C704.836 554.745 705.293 556.403 706.38 556.117C719.533 552.459 730.57 543.026 736.232 530.621C736.632 529.649 735.202 528.734 734.745 529.763Z" fill="black"/>
<path d="M303.78 148.405C302.064 148.233 301.435 146.404 301.893 144.918C302.522 143.031 304.352 142.631 306.067 143.488C307.268 144.117 307.897 145.604 307.383 146.918C306.811 148.348 305.152 148.805 303.78 148.29C302.751 147.89 302.293 149.548 303.323 149.948C305.553 150.806 308.298 149.662 309.098 147.319C309.899 144.803 308.298 142.345 305.896 141.602C303.208 140.802 300.863 142.059 300.177 144.86C299.605 147.433 301.207 149.834 303.78 150.12C304.867 150.234 304.867 148.519 303.78 148.405Z" fill="black"/>
<path d="M301.778 147.033C302.465 148.805 304.981 149.377 306.468 148.29C307.44 147.547 307.898 146.118 307.44 144.86C306.925 143.488 305.438 142.688 304.123 142.917C302.293 143.26 301.092 145.375 301.778 147.033Z" fill="white"/>
<path d="M323.109 147.89C321.394 147.719 320.765 145.889 321.222 144.403C321.851 142.517 323.681 142.116 325.397 142.974C326.598 143.603 327.227 145.089 326.712 146.404C326.14 147.833 324.482 148.29 323.109 147.776C322.08 147.376 321.622 149.034 322.652 149.434C324.882 150.291 327.627 149.148 328.428 146.804C329.228 144.289 327.627 141.831 325.225 141.087C322.537 140.287 320.193 141.545 319.507 144.346C318.935 146.918 320.536 149.319 323.109 149.605C324.196 149.72 324.196 148.005 323.109 147.89Z" fill="black"/>
<path d="M321.108 146.518C321.794 148.29 324.31 148.862 325.797 147.776C326.769 147.033 327.227 145.604 326.769 144.346C326.255 142.974 324.768 142.174 323.452 142.402C321.622 142.745 320.422 144.86 321.108 146.518Z" stroke="black" stroke-miterlimit="10"/>
<path d="M302.636 143.488C303.437 145.261 304.352 146.976 305.438 148.633C306.01 149.548 307.497 148.691 306.925 147.776C305.896 146.118 304.981 144.403 304.123 142.631C303.666 141.659 302.179 142.517 302.636 143.488Z" fill="black"/>
<path d="M302.808 148.633C303.608 147.947 304.352 147.204 305.152 146.518C305.839 145.889 306.525 145.146 307.383 144.689C308.355 144.174 307.497 142.688 306.525 143.203C305.667 143.66 304.981 144.403 304.237 145.089C303.38 145.889 302.465 146.69 301.607 147.49C300.806 148.176 302.007 149.377 302.808 148.633Z" fill="black"/>
<path d="M515.202 187.221C510.112 203.571 504.965 219.977 499.876 236.327C496.73 246.503 504.222 256.793 514.859 256.964C585.829 257.822 656.741 258.622 727.711 259.48C735.488 259.594 742.179 253.992 743.552 246.331C746.583 228.953 749.671 211.574 752.702 194.195C754.417 184.477 746.926 175.559 737.033 175.559C668.122 175.73 599.211 175.902 530.357 176.073C523.437 176.073 517.261 180.59 515.202 187.221Z" fill="white" stroke="black" stroke-width="3" stroke-miterlimit="10"/>
<path d="M242.875 415.144C232.982 443.556 223.088 471.968 213.195 500.38C207.076 517.987 221.602 535.938 242.189 536.166C379.553 537.595 516.975 539.082 654.339 540.511C669.437 540.682 682.418 531.021 684.992 517.701C690.939 487.575 696.83 457.391 702.777 427.264C706.094 410.342 691.568 394.907 672.411 394.907C538.992 395.193 405.574 395.479 272.155 395.765C258.716 395.822 246.878 403.654 242.875 415.144Z" fill="white" stroke="black" stroke-width="3" stroke-miterlimit="10"/>
<path d="M536.705 285.147C527.497 312.702 518.29 340.256 509.083 367.81C508.74 368.839 510.398 369.297 510.742 368.268C519.949 340.713 529.156 313.159 538.363 285.605C538.706 284.519 537.048 284.061 536.705 285.147Z" fill="#E8E8E8"/>
<path d="M537.791 285.319C561.696 284.061 585.714 282.118 609.676 282.118C633.523 282.118 657.313 284.176 681.046 286.234C682.132 286.348 682.132 284.633 681.046 284.519C657.313 282.461 633.523 280.46 609.676 280.403C585.714 280.403 561.696 282.346 537.791 283.604C536.705 283.661 536.647 285.376 537.791 285.319Z" fill="#E8E8E8"/>
<path d="M680.76 286.176C674.355 313.502 667.893 340.771 661.488 368.096C661.259 369.182 662.918 369.64 663.146 368.554C669.551 341.228 676.014 313.959 682.419 286.634C682.647 285.605 680.989 285.147 680.76 286.176Z" fill="#E8E8E8"/>
<path d="M510.113 370.783C549.343 368.668 588.631 368.153 627.919 369.354C639.128 369.697 650.279 370.154 661.488 370.783C662.574 370.84 662.574 369.125 661.488 369.068C622.257 366.896 582.969 366.438 543.682 367.639C532.473 367.982 521.321 368.439 510.113 369.068C509.026 369.125 508.969 370.84 510.113 370.783Z" fill="#E8E8E8"/>
<path d="M586.286 367.868C610.762 355.119 638.727 353.233 665.777 351.575C666.863 351.518 666.863 349.803 665.777 349.86C638.441 351.575 610.191 353.519 585.428 366.381C584.399 366.896 585.257 368.382 586.286 367.868Z" fill="#E8E8E8"/>
<path d="M625.345 313.445C628.033 326.536 629.406 339.856 629.463 353.233C629.463 354.319 631.179 354.319 631.179 353.233C631.064 339.684 629.692 326.25 627.004 312.988C626.775 311.901 625.117 312.359 625.345 313.445Z" fill="#E8E8E8"/>
<path d="M624.716 313.159C621.228 318.247 617.797 323.392 614.308 328.48C614.823 328.651 615.395 328.766 615.909 328.937C615.623 323.792 616.939 318.99 619.855 314.76C620.484 313.845 618.998 312.988 618.369 313.902C615.28 318.361 613.851 323.563 614.137 328.937C614.194 329.795 615.223 330.08 615.738 329.394C619.226 324.307 622.658 319.162 626.146 314.074C626.832 313.102 625.345 312.244 624.716 313.159Z" fill="#E8E8E8"/>
<path d="M618.94 312.702C616.996 311.844 615.052 311.444 612.936 311.558C611.678 311.616 606.588 313.159 607.331 311.273C607.617 310.529 609.218 309.558 609.848 309.043C611.048 308.071 612.307 307.157 613.622 306.413C616.538 304.756 619.798 303.955 623.115 304.47C624.202 304.641 624.659 302.983 623.573 302.812C616.939 301.783 610.019 305.384 605.73 310.358C604.586 311.673 604.758 313.502 606.645 314.074C607.674 314.36 608.818 313.959 609.79 313.731C612.593 313.102 615.338 312.873 618.083 314.074C619.055 314.645 619.913 313.159 618.94 312.702Z" fill="#E8E8E8"/>
<path d="M624.659 302.698C626.832 297.553 631.121 293.78 636.44 292.179C636.154 291.722 635.868 291.207 635.582 290.75C633.638 293.265 632.494 296.009 632.093 299.153C631.979 300.239 633.695 300.239 633.809 299.153C634.152 296.466 635.182 294.065 636.783 291.95C637.24 291.321 636.84 290.235 635.925 290.521C629.977 292.293 625.345 296.524 622.943 302.24C622.6 303.269 624.259 303.727 624.659 302.698Z" fill="#E8E8E8"/>
<path d="M633.352 300.182C637.812 297.61 643.073 297.553 647.591 300.011C647.591 299.496 647.591 299.039 647.591 298.524C643.988 300.239 640.557 302.297 637.297 304.584C636.382 305.213 637.24 306.699 638.155 306.07C641.415 303.784 644.846 301.726 648.449 300.011C649.021 299.725 648.964 298.81 648.449 298.524C643.359 295.723 637.469 295.78 632.494 298.696C631.522 299.268 632.379 300.754 633.352 300.182Z" fill="#E8E8E8"/>
<path d="M636.668 306.185C640.386 308.243 643.989 311.616 642.959 316.303C643.474 316.246 643.989 316.189 644.503 316.075C642.101 312.244 637.984 310.072 633.466 310.244C632.379 310.301 632.379 312.016 633.466 311.959C637.412 311.787 640.958 313.616 643.016 316.932C643.359 317.504 644.446 317.504 644.56 316.703C645.704 311.273 641.93 307.099 637.469 304.641C636.554 304.184 635.696 305.67 636.668 306.185Z" fill="#E8E8E8"/>
<path d="M631.979 311.673C634.61 325.393 635.582 339.284 634.838 353.233C634.781 354.319 636.497 354.319 636.554 353.233C637.297 339.17 636.325 325.05 633.637 311.215C633.409 310.129 631.75 310.587 631.979 311.673Z" fill="#E8E8E8"/>
<path d="M630.092 338.598C631.979 338.827 633.752 338.484 635.467 337.741C636.497 337.283 635.582 335.797 634.61 336.254C633.18 336.94 631.636 337.112 630.092 336.883C629.005 336.712 629.005 338.427 630.092 338.598Z" fill="#E8E8E8"/>
<path d="M517.547 347.402C526.926 347.974 536.419 348.145 545.74 349.231C550.315 349.746 554.719 351.118 559.237 351.804C563.64 352.432 567.929 351.804 572.332 351.003C591.605 347.631 610.991 349.46 630.263 351.518C631.35 351.632 631.35 349.917 630.263 349.803C611.62 347.802 592.691 345.858 574.048 348.945C568.787 349.803 563.812 350.832 558.493 349.917C554.204 349.174 550.087 348.031 545.797 347.516C536.476 346.43 526.983 346.259 517.604 345.687C516.46 345.573 516.46 347.288 517.547 347.402Z" fill="#E8E8E8"/>
<path d="M628.09 326.765C628.319 327.737 629.291 327.965 630.206 327.794C631.979 327.508 633.809 326.879 635.525 326.365C636.611 326.079 636.154 324.421 635.067 324.707C634.038 324.993 633.009 325.278 631.979 325.507C631.522 325.621 631.007 325.736 630.549 325.907C630.321 325.964 630.092 326.022 629.863 326.079C629.463 326.022 629.463 326.079 629.749 326.25C629.52 325.221 627.862 325.679 628.09 326.765Z" fill="#E8E8E8"/>
<path d="M555.634 304.927C549.972 303.098 557.349 293.379 561.295 297.724C562.725 299.268 562.668 301.954 561.352 303.555C559.866 305.384 557.292 305.67 555.291 304.527C554.318 303.955 553.461 305.442 554.433 306.013C557.349 307.671 561.295 307.042 563.125 304.127C564.784 301.44 564.326 297.267 561.41 295.609C555.062 292.065 547.456 304.127 555.233 306.642C556.263 306.928 556.72 305.27 555.634 304.927Z" fill="#E8E8E8"/>
<path d="M687.851 291.15C706.323 292.122 724.623 294.294 742.808 297.724C743.895 297.953 744.353 296.295 743.266 296.066C724.966 292.579 706.494 290.35 687.851 289.378C686.765 289.378 686.765 291.093 687.851 291.15Z" fill="#E8E8E8"/>
<path d="M687.565 296.123C705.179 298.01 722.85 300.011 740.407 302.126C741.493 302.24 741.493 300.525 740.407 300.411C722.793 298.296 705.179 296.295 687.565 294.408C686.479 294.294 686.479 296.009 687.565 296.123Z" fill="#E8E8E8"/>
<path d="M686.993 301.268C697.63 303.041 708.324 304.184 719.076 304.527C720.162 304.584 720.162 302.869 719.076 302.812C708.496 302.412 697.916 301.383 687.451 299.611C686.364 299.439 685.907 301.097 686.993 301.268Z" fill="#E8E8E8"/>
<path d="M680.588 332.081C695.057 334.139 709.582 335.854 724.108 337.226C725.195 337.341 725.195 335.626 724.108 335.511C709.697 334.139 695.343 332.424 681.046 330.423C679.959 330.252 679.502 331.91 680.588 332.081Z" fill="#E8E8E8"/>
<path d="M679.502 336.998C690.996 338.998 702.491 340.656 714.043 342.028C715.13 342.143 715.13 340.428 714.043 340.313C702.606 338.998 691.282 337.341 679.959 335.34C678.873 335.111 678.415 336.769 679.502 336.998Z" fill="#E8E8E8"/>
<path d="M678.301 344.258C692.712 347.116 707.238 349.06 721.878 349.974C722.964 350.032 722.964 348.317 721.878 348.259C707.409 347.288 692.998 345.401 678.758 342.6C677.672 342.371 677.214 344.029 678.301 344.258Z" fill="#E8E8E8"/>
<path d="M267.637 417.831C293.944 419.146 320.364 417.774 346.671 417.374C372.977 416.974 399.226 416.859 425.532 416.916C478.316 417.031 531.043 418.003 583.827 419.203C613.565 419.889 643.245 420.689 672.983 421.433C674.069 421.49 674.069 419.775 672.983 419.718C620.256 418.346 567.472 416.916 514.687 416.059C461.903 415.201 409.177 414.801 356.392 415.487C326.827 415.83 297.146 417.602 267.637 416.059C266.494 416.059 266.494 417.774 267.637 417.831Z" fill="#E8E8E8"/>
<path d="M266.608 216.49C270.039 217.005 272.441 214.661 279.247 209.63C289.483 202.027 291.656 201.798 293.2 201.913C293.944 201.97 295.316 202.199 301.778 207.058C311.214 214.146 311.786 216.319 314.874 216.49C320.479 216.719 321.279 209.63 327.97 209.001C334.032 208.43 335.919 213.975 343.411 213.689C349.187 213.518 352.561 209.973 353.076 210.716C353.705 211.688 348.272 219.177 340.437 220.378C334.661 221.235 333.403 217.862 327.799 218.663C320.021 219.806 318.534 226.895 312.816 226.38C309.442 226.037 308.984 223.522 303.151 219.52C300.063 217.405 294.687 213.746 288.797 213.289C277.988 212.489 272.384 222.95 265.865 219.92C262.719 218.491 260.947 214.604 261.347 214.146C261.633 213.689 263.634 216.033 266.608 216.49Z" fill="#5222D0"/>
<path d="M534.532 187.164C531.043 202.999 526.754 218.663 521.722 234.098C521.378 235.127 523.037 235.584 523.38 234.555C528.413 219.12 532.702 203.456 536.19 187.621C536.419 186.535 534.76 186.078 534.532 187.164Z" fill="#E8E8E8"/>
<path d="M522.751 235.412C528.641 236.098 534.532 235.813 540.479 235.698C546.655 235.527 552.831 235.412 559.065 235.241C571.417 234.955 583.827 234.612 596.18 234.326C597.266 234.326 597.266 232.611 596.18 232.611C583.827 232.897 571.417 233.24 559.065 233.526C553.06 233.697 547.056 233.812 541.051 233.983C534.932 234.155 528.87 234.441 522.751 233.755C521.664 233.583 521.664 235.298 522.751 235.412Z" fill="#E8E8E8"/>
<path d="M544.025 203.113C541.852 213.289 540.021 223.522 538.477 233.812C538.306 234.898 539.964 235.355 540.136 234.269C541.68 223.979 543.51 213.746 545.683 203.571C545.912 202.484 544.253 202.027 544.025 203.113Z" fill="#E8E8E8"/>
<path d="M545.34 204.028C548.371 204.199 551.345 204.485 554.318 205.057C554.147 204.714 553.918 204.371 553.747 204.028C551.059 213.689 548.771 223.465 546.884 233.297C546.655 234.383 548.314 234.841 548.543 233.755C550.43 223.922 552.717 214.146 555.405 204.485C555.519 204.085 555.291 203.513 554.833 203.456C551.688 202.885 548.6 202.542 545.397 202.37C544.196 202.256 544.196 203.971 545.34 204.028Z" fill="#E8E8E8"/>
<path d="M560.094 212.832C559.237 219.806 558.093 226.666 556.663 233.526C556.434 234.612 558.093 235.069 558.322 233.983C559.808 227.009 560.952 219.92 561.81 212.832C561.924 211.745 560.209 211.745 560.094 212.832Z" fill="#E8E8E8"/>
<path d="M560.952 212.946C564.155 212.832 567.414 212.889 570.617 213.117C570.331 212.774 570.045 212.374 569.816 212.031C568.558 218.834 567.472 225.637 566.557 232.497C566.385 233.583 568.101 233.583 568.272 232.497C569.187 225.808 570.217 219.177 571.475 212.489C571.589 211.917 571.246 211.46 570.674 211.402C567.472 211.174 564.212 211.174 561.009 211.231C559.808 211.231 559.808 212.946 560.952 212.946Z" fill="#E8E8E8"/>
<path d="M580.968 197.282C578.966 209.23 576.621 221.178 574.048 233.011C573.819 234.098 575.478 234.555 575.706 233.469C578.28 221.635 580.625 209.687 582.626 197.74C582.855 196.653 581.197 196.196 580.968 197.282Z" fill="#E8E8E8"/>
<path d="M582.34 196.425C582.34 196.539 582.34 196.596 582.34 196.711C582.34 197.168 582.741 197.568 583.198 197.568C583.656 197.568 584.056 197.168 584.056 196.711C584.056 196.596 584.056 196.539 584.056 196.425C584.056 195.967 583.656 195.567 583.198 195.567C582.741 195.624 582.34 195.967 582.34 196.425Z" fill="#E8E8E8"/>
<path d="M582.741 197.854C585.371 198.426 587.887 198.711 590.575 198.654C590.289 198.311 590.003 197.911 589.775 197.568C587.544 209.516 585.486 221.521 583.541 233.526C583.37 234.612 585.028 235.069 585.2 233.983C587.144 221.978 589.203 209.973 591.433 198.025C591.547 197.511 591.204 196.939 590.632 196.939C588.116 196.939 585.714 196.711 583.255 196.196C582.112 195.967 581.654 197.568 582.741 197.854Z" fill="#E8E8E8"/>
<path d="M608.875 193.967C628.319 193.738 647.706 193.852 667.149 194.367C668.236 194.367 668.236 192.652 667.149 192.652C647.706 192.194 628.319 192.08 608.875 192.252C607.789 192.252 607.789 193.967 608.875 193.967Z" fill="#E8E8E8"/>
<path d="M610.191 200.941C622.257 201.741 634.381 201.57 646.448 200.426C647.534 200.312 647.534 198.597 646.448 198.711C634.381 199.855 622.257 200.026 610.191 199.226C609.104 199.169 609.104 200.884 610.191 200.941Z" fill="#E8E8E8"/>
<path d="M607.56 209.573C624.144 209.287 640.729 209.573 657.313 210.431C658.4 210.488 658.4 208.773 657.313 208.716C640.729 207.801 624.144 207.515 607.56 207.858C606.473 207.858 606.473 209.573 607.56 209.573Z" fill="#E8E8E8"/>
<path d="M696.544 236.098C690.711 235.355 687.908 229.524 686.25 224.551C684.706 219.863 684.134 214.947 685.907 210.259C688.995 202.027 697.402 195.396 705.865 193.509C714.672 191.508 723.593 196.196 727.825 204.028C732.286 212.26 730.742 222.836 725.538 230.325C719.133 239.528 705.637 240.557 696.258 235.698C695.286 235.184 694.428 236.67 695.4 237.185C704.378 241.815 716.788 241.586 724.394 234.326C731.828 227.238 734.23 214.604 730.342 205.228C726.624 196.368 717.246 190.194 707.524 191.451C697.916 192.709 688.252 200.026 684.592 209.001C682.132 215.118 683.162 221.521 685.564 227.466C687.622 232.497 690.882 237.07 696.601 237.813C697.63 237.928 697.63 236.213 696.544 236.098Z" fill="#E8E8E8"/>
<path d="M698.946 195.796C701.633 202.713 704.092 209.745 706.437 216.833C706.78 217.862 708.439 217.405 708.096 216.376C705.751 209.287 703.292 202.313 700.604 195.339C700.204 194.367 698.545 194.767 698.946 195.796Z" fill="#E8E8E8"/>
<path d="M708.21 217.805C714.958 213.117 721.649 208.258 728.169 203.285C729.026 202.599 728.169 201.112 727.311 201.798C720.734 206.772 714.1 211.631 707.352 216.319C706.437 216.948 707.295 218.434 708.21 217.805Z" fill="#E8E8E8"/>
<path d="M707.924 217.862C715.587 217.519 723.136 216.262 730.513 214.089C731.543 213.803 731.142 212.146 730.056 212.431C722.85 214.547 715.473 215.804 707.924 216.09C706.837 216.204 706.837 217.919 707.924 217.862Z" fill="#E8E8E8"/>
<path d="M706.552 217.291C701.977 223.179 697.459 229.067 692.884 234.955C692.197 235.813 693.684 236.67 694.371 235.813C698.946 229.924 703.463 224.036 708.038 218.148C708.725 217.291 707.238 216.433 706.552 217.291Z" fill="#E8E8E8"/>
<path d="M268.781 414.916C267.352 414.516 268.209 412.629 268.838 412C269.525 411.314 271.24 411.371 272.155 411.371C273.814 411.314 275.472 411.371 277.188 411.314C280.619 411.314 284.05 411.257 287.482 411.257C294.344 411.2 301.207 411.2 308.069 411.143C321.623 411.086 335.119 410.971 348.672 410.914C375.951 410.743 403.172 410.628 430.45 410.571C484.778 410.4 539.049 410.4 593.377 410.685C608.246 410.8 623.172 410.8 638.041 411.429C645.418 411.714 652.795 412.172 660.172 412.858C663.832 413.201 667.55 413.601 671.21 414.058C672.411 414.23 673.612 414.344 674.812 414.573C675.785 414.744 676.357 414.573 676.7 415.487C677.615 417.66 674.698 419.889 672.925 420.004C671.839 420.061 671.839 421.776 672.925 421.719C676.757 421.433 679.445 417.545 678.015 413.887C677.901 413.601 677.729 413.315 677.443 413.315C650.165 409.256 622.543 409.256 595.036 409.085C566.614 408.913 538.249 408.856 509.827 408.799C452.868 408.799 395.852 409.028 338.893 409.313C322.881 409.428 306.868 409.485 290.856 409.599C287.024 409.599 283.25 409.656 279.418 409.656C276.216 409.656 272.441 409.142 269.353 410.057C266.379 410.914 264.435 415.602 268.324 416.688C269.353 416.859 269.811 415.202 268.781 414.916Z" fill="#E8E8E8"/>
<path d="M264.549 424.977C258.831 445.614 251.854 465.908 243.562 485.688C243.161 486.717 244.82 487.174 245.22 486.145C253.512 466.366 260.489 446.072 266.208 425.434C266.494 424.348 264.835 423.891 264.549 424.977Z" fill="#E8E8E8"/>
<path d="M265.121 426.692C279.818 428.464 294.973 427.264 309.727 427.092C310.814 427.092 310.814 425.377 309.727 425.377C294.973 425.606 279.818 426.749 265.121 424.977C263.977 424.863 264.035 426.578 265.121 426.692Z" fill="#E8E8E8"/>
<path d="M307.898 426.978C303.037 444.928 297.89 462.764 292.457 480.6C292.114 481.686 293.772 482.087 294.115 481.058C299.548 463.279 304.695 445.386 309.556 427.435C309.842 426.349 308.183 425.892 307.898 426.978Z" fill="#E8E8E8"/>
<path d="M244.362 486.545C252.426 486.488 260.432 486.431 268.495 486.374C272.441 486.374 276.33 486.317 280.276 486.317C283.764 486.317 287.253 486.431 290.684 485.631C291.771 485.402 291.313 483.744 290.227 483.973C286.624 484.83 282.849 484.602 279.132 484.602C275.186 484.602 271.297 484.659 267.352 484.659C259.688 484.716 252.025 484.773 244.362 484.773C243.276 484.831 243.276 486.545 244.362 486.545Z" fill="#E8E8E8"/>
<path d="M316.876 427.378C355.535 426.292 394.251 426.349 432.909 427.607C433.996 427.664 433.996 425.949 432.909 425.892C394.251 424.634 355.535 424.52 316.876 425.663C315.789 425.663 315.789 427.378 316.876 427.378Z" fill="#E8E8E8"/>
<path d="M315.275 437.439C337.692 437.382 360.11 437.382 382.584 437.325C383.671 437.325 383.671 435.61 382.584 435.61C360.167 435.667 337.749 435.667 315.275 435.724C314.131 435.724 314.131 437.439 315.275 437.439Z" fill="#E8E8E8"/>
<path d="M292.228 484.545C293.257 482.83 294.001 481 294.401 479.114C294.63 478.028 292.972 477.57 292.743 478.657C292.342 480.429 291.713 482.144 290.741 483.687C290.169 484.602 291.656 485.459 292.228 484.545Z" fill="#E8E8E8"/>
<path d="M506.796 432.409C502.221 454.246 497.817 476.084 493.528 497.922C493.299 499.008 494.958 499.465 495.187 498.379C499.476 476.541 503.879 454.704 508.454 432.866C508.683 431.78 507.024 431.323 506.796 432.409Z" fill="#E8E8E8"/>
<path d="M493.871 499.351C517.375 499.98 540.822 500.609 564.326 501.237C587.544 501.866 610.762 502.838 633.981 502.838C635.067 502.838 635.067 501.123 633.981 501.123C610.762 501.123 587.544 500.094 564.326 499.522C540.822 498.894 517.375 498.265 493.871 497.636C492.785 497.579 492.785 499.294 493.871 499.351Z" fill="#E8E8E8"/>
<path d="M495.587 499.179C502.678 491.519 509.769 483.802 516.861 476.141C516.46 476.141 516.06 476.141 515.66 476.141C518.004 479.057 520.749 481.458 523.952 483.401C524.924 483.973 525.782 482.487 524.81 481.915C521.722 480.086 519.091 477.742 516.861 474.941C516.575 474.598 515.946 474.655 515.66 474.941C508.568 482.601 501.477 490.319 494.386 497.979C493.643 498.779 494.843 499.98 495.587 499.179Z" fill="#E8E8E8"/>
<path d="M524.409 482.83C532.015 473.855 539.678 464.937 547.284 455.961C547.971 455.104 546.77 453.903 546.083 454.761C538.477 463.736 530.814 472.654 523.208 481.629C522.465 482.43 523.666 483.63 524.409 482.83Z" fill="#E8E8E8"/>
<path d="M546.083 455.104C547.627 457.162 549.171 459.163 550.715 461.221C551.059 461.678 551.573 461.792 552.088 461.392C559.065 455.676 565.87 449.673 572.447 443.499C573.247 442.756 572.047 441.555 571.246 442.299C564.669 448.473 557.864 454.475 550.887 460.192C551.345 460.249 551.802 460.306 552.26 460.363C550.715 458.305 549.171 456.304 547.627 454.246C546.884 453.332 545.397 454.189 546.083 455.104Z" fill="#E8E8E8"/>
<path d="M570.617 444.242C580.167 451.788 589.374 459.734 598.296 467.966C599.096 468.709 600.297 467.509 599.497 466.766C590.575 458.477 581.368 450.588 571.818 443.042C570.96 442.356 569.759 443.556 570.617 444.242Z" fill="#E8E8E8"/>
<path d="M599.325 467.738C611.106 460.249 619.569 448.701 631.064 440.812C631.979 440.183 631.121 438.697 630.206 439.326C618.712 447.215 610.248 458.763 598.467 466.251C597.552 466.823 598.41 468.309 599.325 467.738Z" fill="#E8E8E8"/>
<path d="M621.056 442.584C624.659 441.956 628.147 441.041 631.636 439.955C631.293 439.612 630.95 439.269 630.606 438.926C629.977 441.784 629.406 444.642 628.777 447.501C628.548 448.587 630.206 449.044 630.435 447.958C631.064 445.1 631.636 442.241 632.265 439.383C632.379 438.754 631.865 438.125 631.236 438.354C627.747 439.44 624.259 440.355 620.656 440.984C619.569 441.155 620.027 442.813 621.056 442.584Z" fill="#E8E8E8"/>
<path d="M527.841 436.925C525.839 457.333 523.78 477.742 521.779 498.15C521.664 499.237 523.38 499.237 523.494 498.15C525.496 477.742 527.555 457.333 529.556 436.925C529.614 435.839 527.898 435.839 527.841 436.925Z" fill="#E8E8E8"/>
<path d="M553.232 433.323C551.116 455.218 549.4 477.17 548.142 499.122C548.085 500.208 549.801 500.208 549.858 499.122C551.116 477.17 552.832 455.218 554.948 433.323C555.005 432.18 553.289 432.237 553.232 433.323Z" fill="#E8E8E8"/>
<path d="M601.155 432.694C598.925 455.561 597.323 478.428 596.351 501.409C596.294 502.495 598.01 502.495 598.067 501.409C599.039 478.485 600.64 455.561 602.871 432.694C602.985 431.608 601.269 431.608 601.155 432.694Z" fill="#E8E8E8"/>
<path d="M572.504 424.348C571.017 449.844 569.53 475.284 568.043 500.78C567.986 501.866 569.702 501.866 569.759 500.78C571.246 475.284 572.733 449.844 574.22 424.348C574.277 423.205 572.561 423.205 572.504 424.348Z" fill="#E8E8E8"/>
<path d="M394.251 437.154C405.86 438.183 417.469 435.61 429.078 437.039C430.164 437.154 430.164 435.438 429.078 435.324C417.469 433.895 405.86 436.468 394.251 435.439C393.107 435.381 393.164 437.096 394.251 437.154Z" fill="#E8E8E8"/>
<path d="M214.167 334.025C234.412 331.052 253.912 339.17 271.869 347.631C288.511 355.52 304.981 363.58 323.452 365.924C362.912 370.84 400.713 354.262 437.827 343.8C459.616 337.684 482.205 333.396 504.908 336.254C505.995 336.369 505.995 334.654 504.908 334.539C464.706 329.452 426.733 346.373 388.875 356.834C369.66 362.151 349.759 366.153 329.743 364.838C309.67 363.523 291.999 355.405 274.1 346.887C255.285 337.912 235.041 329.28 213.71 332.424C212.623 332.539 213.138 334.196 214.167 334.025Z" fill="#E8E8E8"/>
<path d="M322.48 349.631C372.863 352.318 419.528 329.852 467.737 319.047C481.633 315.96 495.758 313.788 510.055 313.502C511.142 313.502 511.142 311.787 510.055 311.787C459.73 312.93 413.694 336.083 364.742 344.944C350.788 347.459 336.663 348.717 322.48 347.973C321.394 347.802 321.394 349.517 322.48 349.631Z" fill="#E8E8E8"/>
<path d="M225.548 291.15C248.365 292.75 269.182 302.926 290.227 310.872C311.615 318.933 333.918 323.449 356.793 322.877C369.889 322.534 382.927 320.648 395.623 317.332C396.71 317.046 396.252 315.389 395.166 315.674C372.119 321.734 347.929 322.877 324.425 318.819C302.007 314.931 281.82 305.156 260.603 297.553C249.28 293.494 237.614 290.292 225.548 289.492C224.404 289.378 224.461 291.093 225.548 291.15Z" fill="#E8E8E8"/>
<path d="M380.697 181.218C380.24 184.077 379.496 186.878 378.467 189.622C378.238 190.194 378.81 190.708 379.268 190.708C415.696 192.309 452.124 192.652 488.553 191.68C489.639 191.623 489.639 189.908 488.553 189.965C452.124 190.937 415.639 190.651 379.268 188.993C379.553 189.336 379.839 189.736 380.068 190.079C381.097 187.335 381.841 184.591 382.298 181.676C382.527 180.59 380.869 180.132 380.697 181.218Z" fill="#E8E8E8"/>
<path d="M381.841 181.847C418.498 182.305 455.098 182.762 491.755 183.219C492.842 183.219 492.842 181.504 491.755 181.504C455.098 181.047 418.498 180.59 381.841 180.132C380.754 180.075 380.754 181.79 381.841 181.847Z" fill="#E8E8E8"/>
<path d="M491.584 182.19C490.44 184.877 489.582 187.678 489.125 190.594C488.953 191.68 490.612 192.137 490.783 191.051C491.241 188.307 491.984 185.62 493.071 183.048C493.471 182.019 491.984 181.161 491.584 182.19Z" fill="#E8E8E8"/>
<path d="M86.4675 510.27C76.6884 512.613 66.8522 514.957 57.0731 517.301C62.1628 549.429 66.1659 565.436 68.9681 565.207C71.37 565.035 72.914 553.03 73.6003 529.192C79.0331 527.305 84.4659 525.476 89.8987 523.59C88.755 519.188 87.6112 514.729 86.4675 510.27Z" fill="#161616" stroke="#161616" stroke-width="3" stroke-miterlimit="10"/>
<path d="M153.32 390.506C152.062 394.279 150.174 400.281 148.23 407.884C144.17 423.719 143.998 430.465 139.881 450.588C134.963 474.54 132.446 478.656 130.845 481C123.582 491.405 113.517 496.149 108.027 498.722C94.7597 504.953 82.4072 505.525 75.0872 505.239C74.8012 508.612 74.5153 516.844 79.4334 525.133C81.8925 529.249 84.809 532.05 87.0394 533.822C94.4165 534.222 107.112 533.937 121.409 528.391C127.528 526.048 143.14 519.759 155.035 504.153C164.185 492.148 166.702 480.429 169.504 467.28C174.937 441.956 168.188 438.125 174.937 416.631C178.997 403.597 183.686 397.194 180.369 392.392C176.423 386.504 164.014 388.047 153.32 390.506Z" fill="#EC615B"/>
<path opacity="0.09" d="M154.006 390.563C153.434 396.68 152.576 405.14 151.375 415.202C150.289 424.062 149.088 433.666 147.143 444.871C143.769 464.079 142.054 473.683 138.394 481.686C135.191 488.661 129.015 501.58 114.832 511.356C100.078 521.474 84.8091 522.446 78.0037 522.503C77.2031 520.674 76.4025 518.33 75.8878 515.643C75.1444 511.756 75.1444 508.383 75.3731 505.868C79.7766 505.925 85.8384 505.582 92.8725 504.038C105.111 501.294 113.288 496.321 115.404 495.006C120.608 491.748 126.041 488.375 130.502 481.743C133.533 477.285 134.791 473.226 136.85 464.765C139.881 452.303 141.425 446.129 142.683 436.982C144.055 426.406 147.086 410.971 154.006 390.563Z" fill="#3D3D3D"/>
<path opacity="0.12" d="M75.4875 505.696C75.2587 508.212 75.1443 511.642 75.945 515.586C76.5168 518.502 77.3747 520.903 78.1753 522.789C86.01 521.131 110.658 514.843 125.927 492.319C130.445 485.631 133.132 479.057 134.791 473.397C133.247 476.999 130.559 482.258 125.812 487.346C117.635 496.092 108.256 499.294 101.508 501.58C95.789 503.581 86.8678 505.868 75.4875 505.696Z" fill="#3D3D3D"/>
<path d="M149.145 562.749C144.684 575.04 140.224 587.33 135.763 599.678C167.102 603.337 183.057 603.852 183.629 601.108C184.087 598.992 174.822 594.819 155.95 588.702C158.524 581.099 161.154 573.496 163.728 565.893C158.867 564.864 154.006 563.778 149.145 562.749Z" fill="#161616" stroke="#161616" stroke-width="3" stroke-miterlimit="10"/>
<path d="M195.638 397.022C196.267 405.483 196.839 417.031 196.725 430.636C196.439 468.195 191.349 496.378 189.862 504.038C186.031 524.104 179.397 550 167.445 578.927C163.671 579.098 154.349 578.984 145.028 573.153C139.309 569.551 135.763 565.207 133.819 562.291C137.307 555.66 141.596 546.913 145.771 536.223C153.148 517.358 156.351 502.323 158.409 492.434C163.042 470.196 165.386 459.105 163.499 447.215C161.669 435.953 158.695 434.009 159.153 424.405C159.267 422.29 160.697 397.651 176.137 392.964C184.087 390.62 191.978 394.736 195.638 397.022Z" fill="#EC615B"/>
<path opacity="0.14" d="M182.086 392.736C187.176 394.908 185.518 409.2 185.06 412.973C178.941 466.824 187.348 437.84 179.97 471.054C169.848 516.673 156.18 560.52 151.377 575.612C150.233 575.612 148.632 575.498 146.916 574.697C145.315 573.954 144.972 572.982 143.027 571.439C140.911 569.781 140.168 569.895 138.567 568.752C137.137 567.723 135.364 565.894 134.106 562.521C137.08 556.69 140.625 549.201 144.228 540.169C148.803 528.735 151.319 520.046 154.064 510.67C154.064 510.67 162.643 481.115 164.187 458.534C164.473 454.018 164.244 450.931 163.901 448.702C163.386 445.158 162.643 443.385 161.499 439.155C161.213 438.069 159.612 431.895 159.097 427.264C157.667 413.601 164.93 402.625 168.361 398.681C169.562 397.252 171.164 395.708 173.451 394.508C174.309 394.108 179.284 391.535 182.086 392.736Z" fill="#3D3D3D"/>
<path opacity="0.11" d="M168.989 485.745C168.017 499.637 164.757 503.753 155.264 537.881C151.089 552.859 148.001 565.15 146 573.039C144.398 572.41 142.397 571.381 140.338 569.78C137.25 567.379 135.42 564.75 134.391 562.92C137.25 557.032 141.082 548.629 144.799 538.167C146.286 534.051 147.258 530.907 148.173 528.049C161.212 486.26 163.27 473.569 163.899 464.879C164.414 457.505 164.014 451.559 163.899 449.673C163.328 441.784 161.955 436.353 161.955 436.353C161.955 436.353 170.876 458.763 168.989 485.745Z" fill="#3D3D3D"/>
<path d="M96.7041 371.469C96.8184 371.297 97.3903 371.355 98.5341 371.469C100.478 371.64 101.108 371.926 102.366 372.041C103.567 372.098 105.168 372.212 105.625 371.469C106.254 370.497 104.253 368.611 101.451 364.552C96.6469 357.692 96.8756 355.291 97.2759 354.205C97.3903 353.919 97.7334 352.833 98.4769 352.661C99.4491 352.432 100.536 353.747 101.565 355.062C103.281 357.177 103.967 358.835 104.138 358.721C104.482 358.606 102.48 354.319 102.938 349.06C103.052 347.63 103.281 345.572 104.31 345.287C105.225 345.001 106.598 346.144 107.684 347.973C107.684 347.745 107.97 344.601 109.057 344.372C109.914 344.2 110.887 345.858 111.859 347.459C112.659 348.774 113.174 349.974 113.46 350.775C113.403 349.174 114.261 347.859 115.462 347.459C116.777 347.059 117.978 348.088 118.035 348.145C119.35 349.345 119.236 351.461 119.236 352.204C119.122 355.462 119.465 360.95 120.208 368.954C121.695 368.382 123.868 367.353 126.27 365.752C128.729 364.094 131.303 361.922 137.65 354.319C140.109 351.346 141.368 349.86 143.541 346.944C151.375 336.483 156.007 330.309 160.697 321.562C162.184 318.761 164.586 314.017 169.561 309.786C171.162 308.414 174.308 305.842 176.138 306.814C177.453 307.5 177.567 309.672 177.51 312.873C177.453 319.847 177.396 323.277 176.195 328.022C173.45 338.998 168.36 346.659 167.216 348.374C162.698 355.005 158.181 358.835 152.347 363.809C146.286 368.954 141.253 373.184 133.304 376.385C128.1 378.443 123.983 379.186 119.636 379.987C112.431 381.244 108.713 381.873 104.996 380.273C99.6778 377.986 96.075 372.326 96.7041 371.469Z" fill="white"/>
<path d="M175.909 306.013C169.733 306.871 166.073 312.645 162.756 317.389C158.524 323.449 154.521 329.68 150.403 335.797C146.286 341.971 141.997 348.031 137.136 353.69C134.791 356.377 132.389 359.007 129.758 361.408C126.842 364.152 123.639 367.296 119.808 368.611C118.778 368.954 119.236 370.611 120.265 370.268C126.27 368.268 131.36 362.551 135.534 358.035C140.338 352.833 144.627 347.173 148.688 341.342C152.805 335.397 156.751 329.28 160.754 323.278C164.528 317.675 168.989 308.7 176.366 307.671C177.453 307.5 176.995 305.899 175.909 306.013Z" fill="black"/>
<path d="M121.809 380.902C129.129 380.216 135.306 376.843 141.425 372.955C147.487 369.125 153.262 364.723 158.409 359.693C165.043 353.29 170.647 345.687 174.365 337.169C178.025 328.651 179.74 319.333 178.539 310.072C178.425 308.986 176.709 308.986 176.824 310.072C178.768 325.564 172.592 340.942 162.641 352.718C158.181 357.978 152.977 362.608 147.487 366.724C139.938 372.327 131.36 378.329 121.752 379.244C120.723 379.301 120.723 381.016 121.809 380.902Z" fill="black"/>
<path d="M121.809 379.129C118.435 379.072 115.176 379.872 111.859 380.101C108.027 380.387 104.825 379.244 101.679 377.128C100.421 376.271 99.0487 375.242 98.2481 373.87C96.5897 370.954 100.021 372.669 101.222 373.012C103.166 373.584 104.939 373.355 106.426 372.041C107.284 371.297 106.026 370.097 105.225 370.84C102.652 373.127 97.8478 368.039 96.1322 370.954C94.8169 373.184 97.8478 376.385 99.3347 377.586C101.908 379.701 105.053 381.416 108.427 381.816C112.888 382.331 117.349 380.787 121.809 380.901C122.896 380.844 122.896 379.129 121.809 379.129Z" fill="black"/>
<path d="M106.54 371.069C105.397 367.239 102.823 364.266 100.764 360.893C100.478 360.436 97.0471 354.205 98.1909 353.69C100.192 352.776 103.052 358.549 103.452 359.693C103.795 360.722 105.454 360.264 105.111 359.235C104.196 356.606 102.594 354.148 100.192 352.547C98.9343 351.689 97.1043 351.061 96.5325 353.004C95.789 355.634 97.7334 359.178 99.0487 361.351C101.107 364.723 103.795 367.639 104.939 371.526C105.225 372.612 106.883 372.155 106.54 371.069Z" fill="black"/>
<path d="M105.625 359.178C105.111 357.063 104.424 354.891 104.081 352.718C103.852 351.403 103.795 350.089 103.91 348.774C104.081 347.059 104.424 345.344 105.797 347.345C107.913 350.489 108.599 354.776 109.628 358.321C109.914 359.407 111.573 358.949 111.287 357.863C110.429 354.833 109.743 351.632 108.485 348.717C107.856 347.287 106.426 344.086 104.424 344.086C102.366 344.086 102.308 347.287 102.194 348.717C101.908 352.432 103.052 355.977 103.967 359.521C104.196 360.722 105.854 360.264 105.625 359.178Z" fill="black"/>
<path d="M109.628 351.06C109.342 349.86 108.771 347.859 109.228 346.659C110.086 344.429 111.344 348.431 111.687 349.288C112.945 352.318 113.632 355.519 113.803 358.778C113.86 359.864 115.576 359.864 115.519 358.778C115.29 355.634 114.775 352.604 113.689 349.689C113.06 347.916 112.145 344.772 110.429 343.8C106.54 341.571 107.627 350.146 107.913 351.575C108.199 352.604 109.857 352.147 109.628 351.06Z" fill="black"/>
<path d="M115.404 353.061C115.347 352.49 114.947 349.403 115.633 348.831C117.52 347.173 118.035 350.203 118.264 351.118C118.664 353.061 118.607 355.234 118.778 357.234C119.064 361.35 119.35 365.409 119.636 369.525C119.693 370.612 121.409 370.612 121.352 369.525C121.066 365.409 120.78 361.35 120.494 357.234C120.323 354.376 120.551 350.603 119.064 348.031C118.264 346.659 116.891 345.401 115.29 346.43C113.231 347.802 113.517 351.461 113.803 353.519C113.918 354.605 115.576 354.147 115.404 353.061Z" fill="black"/>
<path opacity="0.09" d="M176.538 308.014C176.252 308.014 176.481 312.53 174.708 318.819C173.335 323.621 171.105 328.194 163.899 337.683C157.266 346.43 152.462 352.775 144.112 360.207C134.962 368.382 130.387 372.441 124.097 373.984C110.486 377.357 97.9621 369.525 96.7612 372.155C96.1321 373.584 99.5634 376.442 100.879 377.414C102.537 378.615 105.74 380.501 113.288 380.616C121.352 380.73 127.528 378.786 128.901 378.329C143.426 373.527 152.976 364.037 158.066 358.778C164.814 351.918 170.304 346.316 173.907 336.94C179.683 322.363 177.11 308.014 176.538 308.014Z" fill="#3D3D3D"/>
<path opacity="0.13" d="M175.394 330.08C174.994 329.852 172.592 333.853 169.161 338.598C169.161 338.598 160.926 350.031 150.289 359.75C144.456 365.066 133.819 373.298 116.948 379.758C120.437 379.987 125.641 379.872 131.417 377.929C133.247 377.3 137.822 375.585 148.859 365.981C157.666 358.321 162.584 354.09 167.502 346.659C172.821 338.712 175.966 330.366 175.394 330.08Z" fill="#3D3D3D"/>
<path d="M182.543 299.725C178.94 300.983 176.709 303.212 174.365 305.556C167.845 312.13 165.501 319.562 163.671 325.564C158.181 343.629 155.378 352.604 154.12 360.493C152.633 369.468 151.375 381.359 151.776 395.422C154.749 397.48 158.981 400.109 164.357 402.396C170.533 405.026 176.08 407.37 183.229 406.798C186.088 406.569 191.006 405.769 196.496 402.396C196.782 398.68 197.411 392.906 199.07 386.104C201.929 374.041 205.017 370.554 210.05 355.577C213.996 343.743 215.94 337.683 215.654 330.423C215.425 325.335 214.968 315.388 207.476 307.614C201.758 301.726 191.521 296.581 182.543 299.725Z" fill="white"/>
<path d="M179.969 300.125C173.107 304.241 168.932 311.101 165.501 318.133C161.841 325.736 159.096 333.739 157.094 341.971C152.919 359.121 151.89 376.9 151.204 394.507C151.147 395.593 152.862 395.593 152.919 394.507C153.548 377.7 154.521 360.836 158.295 344.372C160.125 336.312 162.641 328.365 166.13 320.819C169.504 313.445 173.678 305.842 180.827 301.611C181.742 301.04 180.884 299.553 179.969 300.125Z" fill="black"/>
<path d="M202.101 303.841C208.563 308.871 213.023 315.96 214.453 324.021C216.054 333.224 213.824 342.6 210.736 351.232C207.762 359.578 203.873 367.525 201.186 375.985C198.498 384.274 196.839 392.907 196.153 401.596C196.039 402.682 197.754 402.682 197.869 401.596C198.669 391.82 200.728 382.159 204.045 372.955C207.19 364.152 211.365 355.748 214.053 346.773C216.455 338.712 217.713 329.966 215.711 321.62C213.938 314.074 209.478 307.385 203.359 302.697C202.444 301.954 201.243 303.155 202.101 303.841Z" fill="black"/>
<path d="M151.547 395.65C158.467 401.824 167.045 405.883 176.252 407.198C183.572 408.227 193.008 408.284 197.812 401.71C198.441 400.795 196.954 399.938 196.325 400.853C191.521 407.37 180.884 406.512 173.907 405.083C166.015 403.482 158.752 399.766 152.748 394.45C151.947 393.707 150.746 394.907 151.547 395.65Z" fill="black"/>
<path opacity="0.11" d="M189.92 299.954C191.864 303.326 184.658 309.558 179.111 319.276C175.566 325.45 174.193 330.824 171.505 341.571C165.215 366.724 166.416 395.307 166.93 403.597C162.012 400.967 157.151 398.394 152.233 395.765C152.462 390.162 152.919 382.159 153.834 372.555C155.321 357.349 156.179 349.06 159.096 338.312C161.669 328.994 164.185 320.305 171.048 310.987C175.508 304.927 180.255 300.754 183.686 298.124C185.859 298.01 188.89 298.181 189.92 299.954Z" fill="#3D3D3D"/>
<path opacity="0.15" d="M168.074 317.218C168.817 317.447 165.787 329.394 160.926 355.805C157.723 373.127 156.98 379.358 159.553 387.076C162.87 396.965 169.561 402.968 168.303 404.283C167.502 405.083 164.071 403.94 152.233 395.079C151.947 382.617 152.748 365.409 157.723 345.687C161.669 330.08 167.273 316.932 168.074 317.218Z" fill="#3D3D3D"/>
<path d="M221.43 276.401C224.118 278.859 223.775 283.661 223.26 290.635C222.917 295.494 222.745 297.953 221.087 300.296C217.656 305.156 209.878 307.385 203.759 304.641C203.016 304.298 199.241 302.526 197.182 298.238C194.209 292.064 197.297 285.89 197.926 284.747C202.73 275.772 216.626 271.942 221.43 276.401Z" fill="#5222D0"/>
<path d="M221.544 244.788C223.718 245.245 225.033 248.275 227.664 254.392C229.894 259.594 230.923 263.824 231.381 265.825C232.124 269.312 232.524 272.285 232.696 274.514C231.152 274.972 229.608 275.372 228.064 275.829C227.721 277.83 226.977 280.803 225.49 284.118C223.432 288.692 221.716 292.636 217.713 294.465C213.081 296.581 208.105 294.694 206.447 293.894C205.818 295.494 204.903 297.324 203.702 299.267C202.844 300.639 201.929 301.783 201.128 302.755C195.924 304.069 193.523 302.697 192.608 302.011C187.804 298.467 188.204 287.034 195.581 274.114C195.181 273.485 194.552 272.571 193.751 271.542C192.093 269.484 191.521 269.426 190.778 268.226C190.549 267.883 188.776 264.853 190.206 262.109C190.892 260.794 192.322 259.651 193.923 259.537C195.867 259.365 196.496 260.909 198.155 261.366C201.014 262.224 204.159 259.136 211.994 251.762C218.571 245.588 219.886 244.445 221.544 244.788Z" fill="white"/>
<path d="M227.034 254.163C229.722 260.909 231.438 267.94 232.067 275.2C232.124 276.001 233.439 276.001 233.382 275.2C232.753 267.826 231.038 260.68 228.293 253.82C228.007 253.02 226.748 253.363 227.034 254.163Z" fill="black"/>
<path d="M232.41 274.629C230.866 274.8 229.322 275.029 227.778 275.2C226.977 275.315 226.977 276.572 227.778 276.515C229.322 276.344 230.866 276.115 232.41 275.944C233.211 275.772 233.211 274.514 232.41 274.629Z" fill="black"/>
<path d="M227.435 275.772C226.405 281.489 224.061 287.034 220.229 291.436C215.654 296.809 208.391 294.008 202.787 291.721C202.043 291.378 201.7 292.636 202.444 292.979C207.705 295.151 215.254 298.124 220 293.551C224.69 289.092 227.492 282.403 228.636 276.115C228.807 275.315 227.606 274.972 227.435 275.772Z" fill="black"/>
<path d="M205.589 294.18C204.388 296.924 202.901 299.496 201.186 301.954C200.728 302.64 201.815 303.269 202.272 302.583C203.988 300.125 205.475 297.495 206.676 294.809C207.019 294.065 205.932 293.436 205.589 294.18Z" fill="black"/>
<path d="M202.329 293.151C203.187 294.065 204.159 294.866 205.246 295.437C205.989 295.837 206.618 294.751 205.875 294.351C204.846 293.78 203.988 293.094 203.187 292.236C202.672 291.607 201.757 292.522 202.329 293.151Z" fill="black"/>
<path d="M222.231 263.481C221.888 262.795 221.945 261.938 222.402 261.366C222.059 261.252 221.659 261.195 221.316 261.08C221.487 262.052 221.487 262.967 221.43 263.939C221.659 263.71 221.887 263.481 222.059 263.31C222.116 263.424 222.173 263.538 222.288 263.653C222.459 262.852 221.201 262.509 221.03 263.31C220.858 263.996 221.316 264.625 222.059 264.625C222.459 264.625 222.688 264.339 222.688 263.996C222.803 262.91 222.745 261.881 222.574 260.794C222.517 260.337 221.773 260.166 221.487 260.509C220.629 261.595 220.458 262.967 221.144 264.167C221.487 264.853 222.631 264.224 222.231 263.481Z" fill="black"/>
<path d="M218.799 255.764C219.6 253.763 221.888 253.191 223.66 254.335C224.347 254.792 224.976 253.649 224.289 253.248C221.773 251.59 218.685 252.677 217.541 255.421C217.255 256.221 218.513 256.564 218.799 255.764Z" fill="black"/>
<path d="M216.169 266.054C215.94 266.054 215.654 266.054 215.425 266.054C215.368 265.939 215.368 265.825 215.311 265.711C215.425 265.31 215.597 265.196 215.94 265.311C215.997 265.368 216.112 265.482 216.169 265.539C216.169 265.539 216.169 265.539 216.169 265.482C215.997 265.196 215.597 265.082 215.311 265.253C215.025 265.425 214.911 265.825 215.082 266.111C215.311 266.397 215.654 266.568 215.997 266.511C216.34 266.397 216.626 266.111 216.626 265.711C216.626 264.853 215.425 264.625 215.025 265.311C214.853 265.596 214.968 265.996 215.254 266.168C215.597 266.454 215.997 266.339 216.169 266.054Z" fill="black"/>
<path d="M219.028 268.683C218.914 268.798 218.742 268.969 218.571 269.084C218.571 269.084 218.571 269.084 218.628 269.084C218.513 269.084 218.399 269.084 218.285 269.084C218.285 269.084 218.227 269.084 218.227 269.026C218.17 268.969 218.056 268.855 217.999 268.798V268.855C217.999 268.683 217.942 268.512 217.942 268.34C217.999 268.283 218.056 268.226 218.113 268.169C217.827 268.398 217.713 268.741 217.884 269.026C218.056 269.312 218.513 269.484 218.742 269.255C219.142 268.969 219.428 268.397 218.971 267.997C218.799 267.826 218.513 267.712 218.227 267.826C217.942 267.883 217.827 268.055 217.713 268.34C217.598 268.683 217.827 269.026 218.17 269.141C218.571 269.255 218.914 269.026 219.028 268.683Z" fill="black"/>
<path d="M214.51 268.741C214.453 268.741 214.453 268.741 214.396 268.741C213.595 268.741 213.538 270.055 214.396 270.055C214.453 270.055 214.453 270.055 214.51 270.055C215.368 270.055 215.368 268.741 214.51 268.741Z" fill="black"/>
<path d="M219.657 277.201C220.572 280.002 222.002 282.518 224.861 283.604C225.605 283.89 225.948 282.689 225.204 282.346C222.86 281.431 221.659 279.088 220.915 276.801C220.629 276.058 219.428 276.401 219.657 277.201Z" fill="black"/>
<path d="M219.486 277.887C219.829 277.373 220.401 277.087 221.087 276.973C221.43 276.915 221.602 276.458 221.544 276.172C221.43 275.772 221.087 275.658 220.744 275.715C219.772 275.829 218.971 276.401 218.399 277.201C217.884 277.887 218.971 278.573 219.486 277.887Z" fill="black"/>
<path d="M195.181 270.455C191.692 271.713 189.805 266.339 190.434 263.824C190.777 262.509 191.693 260.966 193.065 260.566C194.952 259.994 196.668 261.48 197.869 262.624C198.441 263.195 199.356 262.281 198.784 261.709C197.24 260.223 195.353 258.793 193.065 259.251C191.006 259.651 189.748 261.595 189.233 263.481C188.318 266.968 191.121 273.257 195.524 271.713C196.325 271.427 195.982 270.17 195.181 270.455Z" fill="black"/>
<path d="M217.027 246.045C216.34 246.846 215.311 248.161 214.11 249.876C209.764 256.221 210.164 258.794 207.133 260.623C204.788 262.052 201.186 262.509 198.441 261.366C196.382 260.509 195.81 259.194 194.037 259.251C192.093 259.308 190.263 260.909 189.519 262.795C188.604 265.025 189.519 267.083 190.148 268.398C190.72 269.598 191.521 271.37 193.237 271.77C194.323 271.999 195.295 271.599 195.81 271.313C195.753 271.942 195.638 272.914 195.581 274.114C195.295 279.088 195.867 282.518 196.096 284.747C196.668 290.121 197.182 294.408 195.581 298.467C193.122 304.527 187.003 307.214 184.773 308.185C175.28 312.359 166.473 308.872 165.272 308.357C163.385 307.557 154.349 303.841 152.119 295.38C150.746 290.292 152.29 285.147 152.919 282.975C153.205 282.06 153.949 279.774 155.436 277.144C158.695 271.313 163.385 267.769 166.644 265.768C167.731 261.823 169.561 256.164 172.763 249.704C176.366 242.387 178.368 238.328 182.943 234.555C190.206 228.552 198.441 227.809 201.128 227.638C202.501 227.523 209.249 227.123 217.255 230.382C222.917 232.668 229.551 235.412 232.296 242.215C235.441 250.161 230.98 258.05 230.122 259.537C229.894 258.565 229.436 257.079 228.464 255.649C227.034 253.534 225.433 252.677 223.031 251.019C221.487 249.818 219.428 248.275 217.027 246.045Z" fill="#5222D0"/>
<path d="M193.465 302.526C195.924 303.955 198.784 304.298 201.529 303.383C202.558 303.04 202.101 301.383 201.071 301.726C198.784 302.469 196.439 302.24 194.323 301.04C193.351 300.525 192.493 302.011 193.465 302.526Z" fill="black"/>
<path opacity="0.14" d="M190.777 268.34C191.235 269.655 192.436 270.57 193.751 270.741C195.181 270.913 196.611 270.227 197.354 268.969C197.068 270.856 196.782 274.686 198.555 278.916C200.957 284.747 205.646 287.491 207.705 288.692C212.737 291.55 217.541 291.722 219.886 291.664C219.371 292.579 218.227 294.065 216.283 295.037C211.651 297.324 206.79 294.237 206.504 294.065C205.246 296.809 203.931 298.81 202.901 300.239C201.472 302.183 200.9 302.64 200.499 302.812C197.754 304.413 194.152 302.755 193.122 302.24C191.978 303.326 190.32 304.698 188.147 306.013C186.317 307.099 181.399 309.958 174.593 310.015C174.593 310.015 165.443 310.015 158.066 303.841C155.207 301.44 154.006 299.325 153.663 298.639C153.377 298.067 152.176 295.78 151.89 292.065C151.261 284.919 154.349 278.859 156.065 276.115C159.153 271.199 163.099 268.283 165.615 266.74C165.443 267.369 163.327 276.229 168.017 280.517C173.907 285.833 187.232 280.803 190.148 273.142C190.892 271.256 190.892 269.484 190.777 268.34Z" fill="#3D3D3D"/>
<path opacity="0.07" d="M197.754 284.175C197.297 284.404 198.383 287.377 199.413 289.492C201.071 292.979 203.13 295.552 204.617 297.095C205.017 296.066 205.417 295.037 205.818 294.065C207.133 294.637 209.592 295.437 212.68 295.266C214.739 295.151 216.398 294.637 217.541 294.18C208.734 294.008 204.274 291.321 201.815 288.863C199.813 286.862 198.212 283.947 197.754 284.175Z" fill="#3D3D3D"/>
<path d="M339.808 231.411C339.007 230.953 338.836 229.867 338.722 229.124C338.321 226.437 340.323 224.265 340.666 223.808C342.782 221.464 343.983 222.664 345.984 220.492C347.471 218.891 347.357 217.576 349.644 215.461C351.131 214.032 351.646 214.204 351.76 214.261C352.561 214.604 351.875 216.376 352.675 219.12C353.362 221.407 354.219 221.407 354.505 223.35C354.563 223.865 354.963 226.437 353.419 227.924C352.733 228.61 351.818 228.781 349.93 229.124C347.757 229.524 347.471 229.296 345.984 229.581C342.382 230.267 341.123 232.154 339.808 231.411Z" fill="white"/>
<path d="M339.636 229.01C331.001 237.928 322.366 246.903 313.731 255.821C312.644 257.079 312.587 258.965 313.559 260.223C314.646 261.595 316.59 261.938 318.134 260.966C326.998 250.676 335.805 240.329 344.669 230.039C343.011 229.696 341.352 229.353 339.636 229.01Z" fill="black"/>
<path d="M308.412 277.83C308.698 278.573 307.783 280.117 302.808 283.432C301.378 283.147 300.177 282.346 299.948 281.317C299.605 279.602 302.064 278.173 303.151 277.659C305.152 276.744 308.012 276.801 308.412 277.83Z" fill="black"/>
<path d="M207.819 301.383C204.731 302.069 199.298 303.383 196.782 307.842C195.124 310.758 195.467 313.845 195.581 314.931C196.153 319.79 199.527 323.849 203.359 325.621C208.048 327.736 212.909 326.136 215.368 325.278C236.756 317.904 247.45 314.245 251.797 312.073C264.378 305.727 278.389 298.581 294.344 285.319C298.462 281.889 301.721 278.859 304.009 276.687C304.924 277.201 306.983 278.173 309.442 277.887C311.443 277.658 312.758 276.744 314.703 275.372C316.075 274.4 317.677 273.257 319.106 271.141C320.479 269.141 320.936 267.368 321.337 265.882C321.737 264.224 322.538 261.252 321.508 260.623C320.765 260.165 319.964 261.423 317.963 261.48C317.791 261.48 315.332 261.48 314.245 259.937C313.216 258.508 314.303 257.193 313.388 256.049C312.415 254.792 309.899 254.906 308.298 255.363C304.581 256.507 302.808 260.623 301.664 262.795C298.519 269.026 294.001 272.399 285.594 278.745C279.075 283.661 273.242 285.948 265.407 289.092C262.319 290.349 256.429 292.636 248.651 294.523C235.555 297.61 225.204 297.495 207.819 301.383Z" fill="white"/>
<path d="M198.441 307.271C204.331 301.383 213.595 301.154 221.373 300.068C230.466 298.81 239.558 297.438 248.48 295.323C264.321 291.664 280.047 285.547 292.457 274.8C295.717 271.942 298.747 268.798 301.264 265.196C303.551 261.938 307.897 252.334 313.273 256.907C314.131 257.593 315.332 256.392 314.474 255.706C312.415 253.934 309.67 253.82 307.268 255.02C303.894 256.735 302.35 260.508 300.349 263.538C295.145 271.427 287.253 277.487 279.132 282.117C262.033 291.836 242.361 295.323 223.146 298.124C214.453 299.382 203.931 299.496 197.297 306.07C196.439 306.814 197.64 308.014 198.441 307.271Z" fill="black"/>
<path d="M197.182 305.213C193.351 311.73 194.094 320.362 200.499 324.992C208.163 330.538 218.914 325.278 226.748 322.591C245.22 316.189 262.834 307.499 279.189 296.752C288.282 290.807 296.918 284.176 305.095 277.03C305.953 276.287 304.695 275.086 303.894 275.829C278.217 298.238 247.05 315.96 213.996 324.821C208.334 326.364 202.444 326.021 198.784 320.876C195.581 316.475 195.982 310.644 198.669 306.127C199.241 305.156 197.754 304.298 197.182 305.213Z" fill="black"/>
<path d="M320.422 259.422C320.708 260.737 320.993 262.166 320.879 263.538C320.65 265.425 319.735 266.054 319.049 267.597C318.763 268.283 318.706 268.969 318.477 269.655C318.02 271.199 317.391 271.542 316.304 272.456C315.103 273.428 314.417 274.572 313.388 275.658C311.729 277.43 310.757 276.858 308.698 276.629C307.211 276.458 305.667 276.229 304.18 276.058C303.094 275.943 303.094 277.658 304.18 277.773C306.639 278.116 310.814 279.545 313.102 278.344C314.017 277.887 314.531 277.03 315.103 276.229C315.847 275.2 316.533 274.343 317.677 273.771C318.249 273.485 318.534 273.714 319.049 273.257C319.678 272.742 319.85 271.885 320.021 271.141C320.422 269.312 320.994 268.112 321.794 266.511C322.995 264.167 322.595 261.537 322.08 259.079C321.851 257.879 320.193 258.336 320.422 259.422Z" fill="black"/>
<path d="M313.388 256.221C312.072 258.165 313.102 260.966 315.16 261.881C317.562 262.967 320.25 261.366 321.451 259.251C322.023 258.279 320.536 257.422 319.964 258.393C319.221 259.708 317.677 260.909 316.133 260.394C314.76 259.994 314.017 258.279 314.874 257.079C315.446 256.164 313.959 255.306 313.388 256.221Z" fill="black"/>
<path d="M314.474 257.021C323.109 248.046 331.63 238.957 340.037 229.753C340.78 228.952 339.579 227.695 338.836 228.552C330.429 237.756 321.908 246.846 313.273 255.821C312.473 256.564 313.673 257.822 314.474 257.021Z" fill="black"/>
<path d="M321.394 258.851C329.629 249.361 337.807 239.871 346.041 230.382C346.785 229.524 345.527 228.324 344.841 229.181C336.606 238.671 328.428 248.16 320.193 257.65C319.449 258.508 320.65 259.708 321.394 258.851Z" fill="black"/>
<path d="M307.726 277.601C306.639 278.688 305.553 279.831 304.466 280.917C304.123 281.26 303.608 282.003 303.208 282.232C301.778 282.975 301.035 281.546 300.52 280.631C299.948 279.659 298.462 280.517 299.033 281.489C299.891 282.918 301.321 284.747 303.208 284.176C304.238 283.89 304.981 282.861 305.667 282.118C306.754 281.031 307.84 279.888 308.927 278.802C309.728 278.002 308.469 276.801 307.726 277.601Z" fill="black"/>
<path d="M345.584 230.153C349.015 231.696 353.19 230.782 354.963 227.237C355.821 225.522 355.878 223.464 355.249 221.692C354.162 218.834 350.216 216.319 353.705 213.346C354.562 212.603 353.304 211.402 352.504 212.145C350.502 213.86 349.93 216.49 351.246 218.777C352.504 221.006 354.505 222.264 353.876 225.179C353.19 228.609 349.53 230.039 346.499 228.667C345.412 228.209 344.555 229.696 345.584 230.153Z" fill="black"/>
<path d="M339.922 228.266C340.266 225.751 341.181 224.093 343.411 222.836C344.555 222.207 345.756 221.692 346.785 220.892C348.901 219.177 349.53 216.033 352.046 214.775C353.018 214.261 352.161 212.831 351.188 213.289C349.759 213.975 348.901 215.061 348.1 216.433C346.842 218.434 345.698 219.749 343.582 220.835C340.151 222.607 338.722 224.379 338.207 228.266C338.092 229.353 339.808 229.353 339.922 228.266Z" fill="black"/>
<path d="M339.637 229.924C341.238 229.295 342.896 229.524 344.269 230.553C345.127 231.239 345.984 229.753 345.127 229.067C343.411 227.752 341.124 227.466 339.122 228.266C338.15 228.667 338.607 230.324 339.637 229.924Z" fill="black"/>
<path d="M345.298 222.035C347.528 221.292 349.816 221.235 352.103 221.807C353.19 222.092 353.647 220.435 352.561 220.149C349.988 219.52 347.357 219.577 344.841 220.377C343.811 220.72 344.269 222.378 345.298 222.035Z" fill="#5222D0"/>
<path d="M344.326 222.035C348.501 220.263 349.759 215.404 353.648 213.232C353.304 212.774 352.961 212.317 352.618 211.86C349.644 214.546 352.275 218.205 353.018 221.178C353.419 220.835 353.876 220.549 354.277 220.206C352.103 219.291 349.93 218.891 347.586 219.063C347.814 219.52 348.1 219.92 348.329 220.377C349.13 218.834 350.102 217.462 351.188 216.09C350.731 215.804 350.216 215.518 349.759 215.232C349.301 216.433 348.729 217.919 348.958 219.177C349.015 219.52 349.416 219.806 349.759 219.806C351.131 219.749 351.474 217.862 351.932 216.833C351.417 216.662 350.845 216.547 350.331 216.376C350.445 217.233 350.731 218.262 350.617 219.177C350.731 218.948 350.903 218.662 351.017 218.434C350.617 218.662 349.073 218.491 348.386 218.662C347.243 218.891 346.27 219.291 345.241 219.863C344.498 220.263 344.841 221.521 345.698 221.464C347.128 221.349 348.558 221.178 349.988 221.063C351.074 220.949 351.074 219.234 349.988 219.348C348.558 219.463 347.128 219.634 345.698 219.749C345.87 220.263 345.984 220.835 346.156 221.349C347.357 220.72 348.672 220.263 350.045 220.206C350.559 220.149 351.36 220.377 351.818 220.034C352.847 219.291 352.161 217.519 352.046 216.433C351.932 215.69 350.845 215.118 350.445 215.976C350.388 216.147 349.473 218.091 349.759 218.091C350.045 218.319 350.331 218.491 350.559 218.72C350.388 217.862 351.074 216.433 351.36 215.69C351.646 214.889 350.445 214.203 349.93 214.832C348.729 216.261 347.7 217.805 346.785 219.463C346.499 219.977 346.842 220.835 347.528 220.778C349.587 220.606 351.474 220.892 353.362 221.692C354.048 221.978 354.848 221.521 354.62 220.72C354.048 218.434 351.532 215.061 353.762 213.06C354.505 212.374 353.533 211.231 352.733 211.688C348.901 213.86 347.528 218.72 343.411 220.492C342.439 221.006 343.354 222.435 344.326 222.035Z" fill="#5222D0"/>
<path d="M352.675 211.46C350.273 212.946 348.787 215.175 347.014 217.291C345.927 218.605 344.726 219.406 343.525 220.549C343.068 220.949 342.668 221.178 342.668 221.807C342.668 221.921 342.725 222.093 342.896 222.15C346.499 223.693 350.502 219.577 354.048 222.493C354.277 222.664 354.562 222.664 354.734 222.378C355.763 220.892 353.476 219.463 352.618 218.548C352.332 218.262 351.76 218.548 351.875 218.948C352.046 219.52 351.989 219.463 352.389 219.92C352.733 220.378 353.476 219.92 353.133 219.463C353.018 219.177 352.847 218.948 352.733 218.663C352.504 218.777 352.275 218.948 351.989 219.063C352.389 219.463 354.505 221.121 353.991 221.864C354.219 221.807 354.448 221.807 354.677 221.749C353.476 220.778 352.103 220.32 350.502 220.377C349.587 220.435 348.672 220.606 347.757 220.778C347.014 220.949 346.328 221.121 345.584 221.178C344.783 221.292 343.811 221.749 344.44 220.663C344.783 220.092 345.813 219.577 346.27 219.12C346.957 218.434 347.586 217.691 348.158 216.89C349.644 215.061 351.017 213.232 353.018 211.974C353.59 211.917 353.133 211.174 352.675 211.46Z" fill="#5222D0"/>
<path d="M343.868 222.436C345.584 222.664 347.242 222.093 348.958 221.864C350.388 221.692 351.532 221.921 352.847 222.378C353.59 222.664 354.048 222.836 354.848 222.721C355.134 222.664 355.306 222.493 355.249 222.207C355.134 221.464 354.963 221.064 354.562 220.435C354.277 219.977 353.533 220.435 353.819 220.892C354.219 221.349 354.391 221.864 354.448 222.436C354.562 222.264 354.734 222.093 354.848 221.921C353.247 222.093 351.646 220.949 349.987 220.949C348.043 221.006 346.042 221.921 344.097 221.635C343.525 221.521 343.297 222.321 343.868 222.436Z" fill="#5222D0"/>
<path d="M351.989 212.946C352.275 212.546 352.618 212.203 353.076 211.974C353.19 211.917 353.59 211.631 353.705 211.745C353.876 211.86 353.419 212.203 353.304 212.26C352.618 212.832 352.161 213.575 351.818 214.375C351.589 214.89 352.447 215.118 352.618 214.604C352.961 213.803 353.533 213.289 354.162 212.66C354.563 212.317 354.791 211.803 354.391 211.288C353.533 210.145 351.875 211.631 351.303 212.374C351.017 212.774 351.646 213.403 351.989 212.946Z" fill="#5222D0"/>
<path d="M353.933 211.059C352.961 211.688 352.275 212.66 351.989 213.803C351.875 214.318 352.675 214.547 352.79 214.032C353.018 213.117 353.533 212.374 354.334 211.803C354.848 211.46 354.391 210.716 353.933 211.059Z" fill="#5222D0"/>
<path d="M197.869 307.156C199.699 303.555 206.332 302.183 209.992 301.726C211.079 301.554 210.622 299.896 209.535 300.068C205.417 300.64 198.498 302.24 196.382 306.299C195.924 307.271 197.411 308.185 197.869 307.156Z" fill="black"/>
<path opacity="0.13" d="M195.924 315.446C201.071 315.103 208.563 314.417 217.427 312.702C242.818 307.842 260.889 298.41 271.927 292.579C281.077 287.72 293.2 280.46 306.525 269.998C312.358 268.112 315.961 265.539 318.248 263.481C319.793 262.109 320.936 260.737 321.508 261.023C322.423 261.537 320.994 266.282 319.049 269.712C317.334 272.799 315.332 274.571 314.703 275.143C313.102 276.515 312.187 277.487 310.643 277.887C307.783 278.63 305.21 277.087 304.352 276.515C302.236 278.173 299.148 280.631 295.316 283.547C279.876 295.266 272.098 301.154 261.862 306.756C252.426 311.901 244.534 314.988 229.15 320.934C227.721 321.505 225.833 322.134 222.059 323.392C211.994 326.765 209.592 327.165 206.79 326.65C205.646 326.422 202.844 325.907 200.271 323.678C196.897 320.648 196.153 316.76 195.924 315.446Z" fill="#3D3D3D"/>
<path opacity="0.19" d="M241.274 315.846C241.16 315.674 242.132 314.874 263.577 301.268C291.828 283.318 289.826 284.919 292.8 282.746C305.153 273.6 310.643 267.426 313.502 269.255C315.446 270.513 315.789 275.086 313.674 277.087C311.844 278.859 308.012 278.688 304.581 276.172C297.661 282.346 287.367 290.75 273.814 299.267C257.801 309.157 241.674 316.532 241.274 315.846Z" fill="#3D3D3D"/>
</svg>
